<svg xmlns="http://www.w3.org/2000/svg" width="22" height="22" viewBox="0 0 22 22"><path d="M349.083,101.918a.954.954,0,0,1-.94-1.116,17.475,17.475,0,0,0,.255-2.8,17.265,17.265,0,0,0-2.784-9.247.953.953,0,1,1,1.6-1.039A19.166,19.166,0,0,1,350.3,98v.019a19.432,19.432,0,0,1-.283,3.113A.954.954,0,0,1,349.083,101.918Zm0,0" transform="translate(-328.305 -87.286)" fill="#fafafa"/><path d="M346.411,352.616a.953.953,0,0,1-.8-1.473,17.208,17.208,0,0,0,1.484-2.828.953.953,0,1,1,1.763.725,19.111,19.111,0,0,1-1.649,3.143.952.952,0,0,1-.8.434Zm0,0" transform="translate(-328.303 -330.616)" fill="#fafafa"/><path d="M283.222,139.054a.927.927,0,0,1-.53-.167,1,1,0,0,1-.261-1.365,13.22,13.22,0,0,0,0-14.6,1,1,0,0,1,.261-1.365.935.935,0,0,1,1.322.27,15.743,15.743,0,0,1,2.522,8.384v.026a15.74,15.74,0,0,1-2.522,8.384.944.944,0,0,1-.793.436Zm0,0" transform="translate(-269.279 -119.221)" fill="#fafafa"/><path d="M94.483,170.042a1.55,1.55,0,0,1-.945-.32l-7.211-5.544a7.682,7.682,0,0,0-.124,1.367,6.078,6.078,0,0,0,.883,2.817.953.953,0,0,1-1.6,1.035,7.966,7.966,0,0,1-1.188-3.851,9.6,9.6,0,0,1,.379-2.658,1.387,1.387,0,0,1,2.177-.709l7.451,5.729a8.276,8.276,0,0,0,.381-2.632,8.448,8.448,0,0,0-1.541-4.677.953.953,0,1,1,1.563-1.091,10.221,10.221,0,0,1,1.225,9.526,1.559,1.559,0,0,1-1.026.951,1.54,1.54,0,0,1-.424.059Zm0,0" transform="translate(-84.298 -154.292)" fill="#fafafa"/></svg>