<svg xmlns="http://www.w3.org/2000/svg" width="21.439" height="21.441" viewBox="0 0 21.439 21.441"><g transform="translate(0 0)"><path d="M349.083,101.918a.954.954,0,0,1-.94-1.116,17.475,17.475,0,0,0,.255-2.8,17.265,17.265,0,0,0-2.784-9.247.953.953,0,1,1,1.6-1.039A19.166,19.166,0,0,1,350.3,98v.019a19.432,19.432,0,0,1-.283,3.113A.954.954,0,0,1,349.083,101.918Zm0,0" transform="translate(-328.865 -87.286)" fill="#00154d"/><path d="M346.411,352.616a.953.953,0,0,1-.8-1.473,17.208,17.208,0,0,0,1.484-2.828.953.953,0,1,1,1.763.725,19.111,19.111,0,0,1-1.649,3.143.952.952,0,0,1-.8.434Zm0,0" transform="translate(-328.864 -331.175)" fill="#00154d"/><path d="M283.222,138.494a.953.953,0,0,1-.791-1.484,12.465,12.465,0,0,0,0-14.139.953.953,0,0,1,1.584-1.061,14.9,14.9,0,0,1,2.522,8.118v.025a14.9,14.9,0,0,1-2.522,8.118.952.952,0,0,1-.793.422Zm0,0" transform="translate(-269.69 -119.221)" fill="#00154d"/><path d="M94.483,170.042a1.55,1.55,0,0,1-.945-.32l-7.211-5.544a7.682,7.682,0,0,0-.124,1.367,6.078,6.078,0,0,0,.883,2.817.953.953,0,0,1-1.6,1.035,7.966,7.966,0,0,1-1.188-3.851,9.6,9.6,0,0,1,.379-2.658,1.387,1.387,0,0,1,2.177-.709l7.451,5.729a8.276,8.276,0,0,0,.381-2.632,8.448,8.448,0,0,0-1.541-4.677.953.953,0,1,1,1.563-1.091,10.221,10.221,0,0,1,1.225,9.526,1.559,1.559,0,0,1-1.026.951,1.54,1.54,0,0,1-.424.059Zm0,0" transform="translate(-84.298 -154.535)" fill="#00154d"/></g></svg>